Coordinates
version=1
nRows=16
nColumns=18
inDegrees=yes

Units are S.I. units (second, meters, Newtons, ...)
If the header above contains a line with 'inDegrees', this indicates whether rotational values are in degrees (yes) or radians (no).

endheader
time	ground_thorax_rot_x	ground_thorax_rot_y	ground_thorax_rot_z	ground_thorax_tx	ground_thorax_ty	ground_thorax_tz	clav_prot	clav_elev	scapula_abduction	scapula_elevation	scapula_upward_rot	scapula_winging	plane_elv	shoulder_elv	axial_rot	elbow_flexion	pro_sup
      0.00000000	      2.22648448	    -17.04158963	    -19.37879111	     -0.01626886	     -0.01462978	      0.03661085	    -23.63148677	    -13.73326246	    -17.83702383	    -10.34240783	      9.88883652	     33.43998922	      8.13164698	     33.13404436	     -2.39623612	      0.05002899	     63.92270238
      0.02000000	      2.29773466	    -17.01439947	    -19.38062246	     -0.01612660	     -0.01446779	      0.03659277	    -23.68218945	    -13.75358187	    -17.86974264	    -10.37554517	      9.95179433	     33.44954421	      8.08620020	     33.22261390	     -2.42375189	      0.05002899	     63.92270238
      0.04000000	      2.21896559	    -17.06217584	    -19.40576364	     -0.01597978	     -0.01460829	      0.03662702	    -23.62606431	    -13.68342795	    -17.82555530	    -10.31622717	      9.93009111	     33.40919468	      8.31175827	     33.27076437	     -2.39808433	      0.05002899	     63.92270238
      0.06000000	      2.15547028	    -17.10833288	    -19.43140994	     -0.01584689	     -0.01473322	      0.03666829	    -23.57608514	    -13.62001240	    -17.78451070	    -10.26361852	      9.91436540	     33.37226228	      8.52478308	     33.32452060	     -2.37437894	      0.05002899	     63.92270238
      0.08000000	      2.26224485	    -16.88895034	    -19.26644324	     -0.01570259	     -0.01413398	      0.03654953	    -23.81376092	    -13.78259827	    -18.06793243	    -10.39812814	      9.92996483	     33.50099900	      8.04474778	     33.31830761	     -2.52728343	      0.05002899	     63.92270238
      0.10000000	      2.19063838	    -16.93643935	    -19.29700605	     -0.01557396	     -0.01428133	      0.03660499	    -23.75088507	    -13.71314523	    -18.01408072	    -10.33862124	      9.90692097	     33.45942975	      8.28758523	     33.36648507	     -2.49623834	      0.05002899	     63.92270238
      0.12000000	      2.13205272	    -16.98107551	    -19.32736100	     -0.01543885	     -0.01442120	      0.03666984	    -23.69385186	    -13.65011959	    -17.96363806	    -10.28530613	      9.88881130	     33.42125039	      8.51550351	     33.41784155	     -2.46800997	      0.05002899	     63.92270238
      0.14000000	      2.19032963	    -16.81603245	    -19.23959872	     -0.01529026	     -0.01395522	      0.03661201	    -23.84945201	    -13.82427609	    -18.13254890	    -10.41802718	      9.88061732	     33.53805775	      8.13553526	     33.44427362	     -2.60074816	      0.05002899	     63.92270238
      0.16000000	      2.13107561	    -16.85375353	    -19.26548062	     -0.01516250	     -0.01411233	      0.03670690	    -23.78357489	    -13.75799232	    -18.07375885	    -10.36026421	      9.85612627	     33.49725756	      8.37896140	     33.48395218	     -2.56932587	      0.05002899	     63.92270238
      0.18000000	      2.08510730	    -16.88435806	    -19.29011217	     -0.01504219	     -0.01425168	      0.03681637	    -23.72215588	    -13.69924869	    -18.01625915	    -10.30926540	      9.83585443	     33.46009910	      8.60724895	     33.52458783	     -2.54128803	      0.05002899	     63.92270238
      0.20000000	      2.10199200	    -16.71942512	    -19.23475198	     -0.01493614	     -0.01384856	      0.03675689	    -23.80895963	    -13.89827225	    -18.07004483	    -10.45728091	      9.83096070	     33.56893598	      8.19961738	     33.52744093	     -2.70724124	      0.05002899	     63.92270238
      0.22000000	      2.05441222	    -16.74374828	    -19.24993894	     -0.01482768	     -0.01399361	      0.03692214	    -23.73868356	    -13.83659201	    -18.00458586	    -10.40185077	      9.80341624	     33.52938890	      8.44797706	     33.55761827	     -2.67537765	      0.05002899	     63.92270238
      0.24000000	      1.89435133	    -16.66511789	    -19.27124409	     -0.01473663	     -0.01378579	      0.03696007	    -23.68410335	    -14.08762838	    -17.91181400	    -10.54170004	      9.64382500	     33.65447418	      8.15144079	     33.62054241	     -2.89646344	      0.05002899	     63.92270238
      0.26000000	      1.85645165	    -16.68052434	    -19.28283224	     -0.01466690	     -0.01393699	      0.03716505	    -23.61287540	    -14.02681585	    -17.84372878	    -10.48723086	      9.61800627	     33.61438088	      8.40323943	     33.64884031	     -2.86189416	      0.05002899	     63.92270238
      0.28000000	      1.82375373	    -16.68141362	    -19.30024319	     -0.01457992	     -0.01407532	      0.03739183	    -23.54522789	    -13.97230511	    -17.77592977	    -10.43866539	      9.59674675	     33.57709453	      8.63470476	     33.68104170	     -2.83165640	      0.05002899	     63.92270238
      0.30000000	      1.85626504	    -16.46646969	    -19.36022649	     -0.01461346	     -0.01393570	      0.03726982	    -23.56139866	    -14.10272259	    -17.73268811	    -10.54133997	      9.62454256	     33.63222138	      8.39688424	     33.75698700	     -2.92836709	      0.05002899	     63.92270238
